<svg xmlns="http://www.w3.org/2000/svg" x="0" y="0" version="1.1" viewBox="0 0 599.998 583.111"><path d="m61.274 554.244 511.207-.327v26.215l-511.207.327zm20.165-50.429 471.883-.302v36.3l-471.883.302zM78.414 90.416l469.362-.3v50.415l-469.362.3zM313.095 1.981 67.324 59.612l14.115 15.621 231.656-.15 231.658-.15 14.115-15.637zM146.114 300.329c-.404-24.759-1.046-49.518-2.015-74.261-.914-23.311-2.416-46.599-3.55-69.905-.098-2.012-.951-2.445-2.62-2.809-6.876-1.495-13.788-2.195-20.729-2.201-6.941.015-13.853.724-20.729 2.228-1.669.364-2.522.8-2.62 2.812-1.134 23.307-2.636 46.598-3.549 69.91-.97 24.744-1.613 49.504-2.016 74.264-.286 17.546-.109 35.106.169 52.658.307 19.47.739 38.946 1.528 58.401.845 20.88 2.152 41.741 3.298 62.608.22 3.998.63 7.986.942 11.873 7.705 2 15.344 3.153 22.978 3.244 7.635-.1 15.273-1.264 22.978-3.275.313-3.886.721-7.875.941-11.873 1.146-20.868 2.453-41.731 3.299-62.612.788-19.457 1.221-38.932 1.527-58.404.277-17.551.456-35.111.168-52.658Zm127.796-.082c-.404-24.759-1.047-49.518-2.017-74.261-.914-23.311-2.416-46.601-3.549-69.905-.098-2.012-.95-2.447-2.62-2.81-6.875-1.494-13.788-2.194-20.728-2.201-6.941.016-13.853.725-20.729 2.228-1.669.364-2.522.801-2.62 2.813-1.132 23.307-2.636 46.596-3.549 69.91-.97 24.743-1.613 49.504-2.016 74.264-.286 17.546-.109 35.106.168 52.658.308 19.47.739 38.944 1.528 58.4.846 20.88 2.152 41.742 3.298 62.608.22 3.999.629 7.987.941 11.874 7.706 2 15.345 3.152 22.978 3.242 7.634-.1 15.272-1.263 22.978-3.273.311-3.886.721-7.876.941-11.873 1.145-20.868 2.452-41.733 3.297-62.613.789-19.457 1.221-38.932 1.529-58.403.279-17.551.457-35.111.17-52.658Zm148.213-.095c-.405-24.759-1.046-49.52-2.017-74.261-.914-23.313-2.416-46.601-3.549-69.905-.099-2.012-.95-2.447-2.621-2.811-6.874-1.494-13.787-2.193-20.728-2.2-6.941.015-13.853.724-20.729 2.227-1.669.365-2.522.802-2.619 2.814-1.133 23.305-2.637 46.596-3.549 69.91-.971 24.742-1.612 49.503-2.017 74.263-.286 17.547-.108 35.107.169 52.658.308 19.47.739 38.945 1.528 58.401.847 20.879 2.152 41.742 3.299 62.607.221 3.999.629 7.988.94 11.873 7.706 2 15.344 3.153 22.978 3.244 7.635-.1 15.273-1.263 22.978-3.273.312-3.887.721-7.876.941-11.875 1.146-20.867 2.452-41.731 3.299-62.611.787-19.457 1.219-38.933 1.527-58.403.278-17.552.456-35.112.17-52.658Zm124.769-.081c-.405-24.759-1.046-49.519-2.016-74.261-.914-23.312-2.417-46.601-3.55-69.905-.099-2.012-.95-2.446-2.62-2.811-6.874-1.494-13.787-2.193-20.728-2.199-6.94.014-13.853.723-20.728 2.227-1.671.365-2.522.801-2.62 2.813-1.134 23.306-2.638 46.596-3.549 69.91-.97 24.742-1.613 49.504-2.017 74.263-.287 17.547-.109 35.107.169 52.658.308 19.471.739 38.946 1.529 58.401.845 20.88 2.152 41.742 3.297 62.608.221 3.998.629 7.987.941 11.873 7.707 2 15.345 3.154 22.978 3.244 7.634-.101 15.273-1.264 22.978-3.274.312-3.887.721-7.876.94-11.874 1.147-20.868 2.453-41.732 3.299-62.612.789-19.456 1.22-38.933 1.528-58.403.278-17.552.456-35.111.169-52.658Z"/></svg>